<mxfile host="app.diagrams.net" modified="2022-06-29T08:50:01.264Z" agent="5.0 (Windows NT 10.0; Win64; x64) AppleWebKit/537.36 (KHTML, like Gecko) Chrome/102.0.0.0 Safari/537.36" etag="gN2qBSJT_gDzbeJPt7P8" version="20.0.3" type="github">
  <diagram id="ShwQF7LgR1bRyA7x9rF5" name="Page-1">
    <mxGraphModel dx="3903" dy="-1576" grid="1" gridSize="10" guides="1" tooltips="1" connect="1" arrows="1" fold="1" page="1" pageScale="1" pageWidth="827" pageHeight="1169" math="0" shadow="0">
      <root>
        <mxCell id="0" />
        <mxCell id="1" parent="0" />
        <mxCell id="WS7tdzHbWe4_qbeAku0G-1" value="Payment Service&lt;br&gt;(Azure)" style="rounded=1;whiteSpace=wrap;html=1;verticalAlign=top;fillColor=#f5f5f5;fontColor=#333333;strokeColor=#666666;" vertex="1" parent="1">
          <mxGeometry x="-1870" y="2950" width="390" height="130" as="geometry" />
        </mxCell>
        <mxCell id="WS7tdzHbWe4_qbeAku0G-2" style="edgeStyle=orthogonalEdgeStyle;rounded=0;orthogonalLoop=1;jettySize=auto;html=1;entryX=0;entryY=0.5;entryDx=0;entryDy=0;" edge="1" parent="1" source="WS7tdzHbWe4_qbeAku0G-3" target="WS7tdzHbWe4_qbeAku0G-6">
          <mxGeometry relative="1" as="geometry" />
        </mxCell>
        <mxCell id="WS7tdzHbWe4_qbeAku0G-3" value="SITI Agri" style="rounded=1;whiteSpace=wrap;html=1;verticalAlign=top;fontSize=12;" vertex="1" parent="1">
          <mxGeometry x="-2440" y="2990" width="140" height="70" as="geometry" />
        </mxCell>
        <mxCell id="WS7tdzHbWe4_qbeAku0G-4" value="" style="shape=image;verticalLabelPosition=bottom;labelBackgroundColor=#ffffff;verticalAlign=top;aspect=fixed;imageAspect=0;image=https://www.abacogroup.eu/includes/img/abaco-group.png;" vertex="1" parent="1">
          <mxGeometry x="-2385.75" y="3020" width="30" height="32.55" as="geometry" />
        </mxCell>
        <mxCell id="WS7tdzHbWe4_qbeAku0G-5" style="edgeStyle=orthogonalEdgeStyle;rounded=0;orthogonalLoop=1;jettySize=auto;html=1;entryX=0;entryY=0.5;entryDx=0;entryDy=0;fontSize=12;" edge="1" parent="1" source="WS7tdzHbWe4_qbeAku0G-6" target="WS7tdzHbWe4_qbeAku0G-9">
          <mxGeometry relative="1" as="geometry" />
        </mxCell>
        <mxCell id="WS7tdzHbWe4_qbeAku0G-6" value="MFT" style="rounded=1;whiteSpace=wrap;html=1;verticalAlign=top;fontSize=12;" vertex="1" parent="1">
          <mxGeometry x="-2202.5" y="2990" width="140" height="70" as="geometry" />
        </mxCell>
        <mxCell id="WS7tdzHbWe4_qbeAku0G-7" value="" style="shape=image;verticalLabelPosition=bottom;labelBackgroundColor=default;verticalAlign=top;aspect=fixed;imageAspect=0;image=data:image/png,iVBORw0KGgoAAAANSUhEUgAAAlgAAAE7CAYAAAAB7v+1AAAABGdBTUEAALGPC/xhBQAAACBjSFJNAAB6JgAAgIQAAPoAAACA6AAAdTAAAOpgAAA6mAAAF3CculE8AAAvb0lEQVR42u3diXLbxra24QZJzfNgyY6d7bhS2fd/PyfnVH7Pjq3BsmaJxF9fNxfQICmKlECJIN6nSmUncUyp0cPqAb2cAwAAAAAAAAAAAAAAAAAAAAAAAAAAAAAAAAAAAAAAAAAAAAAAAAAAAAAAAAAAAAAAAAAAAAAAAAAAAAAAAAAAAAAAAAAAAAAAAAAAAAAAAAAAAAAAAAAAAAAAAAAAAAAAAAAAAAAAAAAAAAAAAAAAAAAAAAAAAAAAAAAAAAAAAAAAAAAAAAAAAAAAAAAAAAAAAAAAAAAAAAAAAAAAAAAAAAAAAAAAAAAAAAAAAAAAAAAAAAAAAAAAAAAAAAAAAAAAAAAAAAAAAAAAAAAAAAAAAAAAAAAAAAAAAAAAAEqTpGmaUgwAAADlaVAEAAAABFgAAAAEWAAAAARYAAAAIMACAAAgwAIAACDAAgAAAAEWAAAAARYAAAABFgAAAAiwAAAACLAAAAAIsAAAAAiwAAAAQIAFAABAgAUAAECABQAAAAIsAAAAAiwAAIDZ0xr1D6Zp2vNvEkoPAADMkP5YJ3lguDM0wGq3O+7q6tZdXl67y8tbd3Nz6zqd8OFJ8vAPBQAAmKrQKs0XkxTjtFoNNz/fcouLc/5Lvy8twLq+brvj43N3cPDLHRycudPTS3d72/bfRKOR+C8AAIDqB1ipX0RSjNNsJm5xcd5tbS27nZ01t7Oz4lqt5lhxz9AASytWx8dn7v37Q/f+/YH78eOXu7y88UtozWbDfwEAAFRb4jqdjt+5U5A1N9d06+tL7vXrLddup25pac6tri6OdTzq3hWsnz8v3JcvR+7vv7+5T5+O3Pn5lf9wRXJzc43uh6U8GwAAUNkAS8GVdukU42g7cHd31f+7tbVFt7e3NuAs+iMCLP3FFxfXfpvw+/cT9/nzkd8m1GfY3qTr7lsCAABULrRK8phHC0tp2nELC3M+2NreXnGnp1fu5qY9dqwzNMBStKYP1F+srUEFW/rqdJxfPtN/y/8sDwkAAFQ7wApbhamPe/Si3+1tJ3vBr7QAK3xo0v194r/CK4tp9AZh2CLkjUIAAFDNICvJrmSIb0l4zI0J97xzGN4U1GF2bQlq1Wp+vpkdAJuba/kPZvUKAABUN8By3TcE026M0/JxjuIf/fvkAVFWa5QPtDcGdbBdX9o6DAFWs/snibAAAEAlw6ts5cquatCikr7yAMuNvZI1wq1Z6cDf24VcrGABAIDqSrPjUCG2yeOcwp8aM9a59yKr+MMGfQjBFQAAqHyYVXJA0xjvwwmoAAAASg2wAAAAQIAFAABAgAUAAECABQAAAAIsAAAAAiwAAAACLAAAAAIsAAAAEGABAAAQYAEAABBgAQAAgAALAACAAAsAAIAACwAAAARYAAAABFgAAAAEWAAAACDAAgAAIMACAAAgwAIAACDAAgAAAAEWAAAAARYAAAABFgAAAMbSoggmK0my30X/Ns1/l076s9Bv0uXPMxj1GVD+s1P+9EGUf93HAAKsp3p8aeofXDrk6SVJ0m0QSc/gMO5nhQrT6Qz/PFD+01b+xefwuPZG+T9kMA5lnzzyAYzS32Hy5a9+iEcw/hiQ90UEWJUIrjqd/CtU/nTgQ200Gq7ReHgDs06t0+lEn5dH6EnCTCYOgmx2p2JpNB5f/sXnHZ6B/bv4s9BfJqH8wzN4TDlZG2u39WunZ6Cn/Ae1gdAHJdEzeEwfNKy/o/wp/2ktf9ft/638XekrfwRYE3qQ1slb5beZhR5i+DU81PDAH/NQ08LsMZ7J6O9lRtlfXvlzystHv39IR2TFW3wGvc+HUh9c/vkzeGznFp5jKGsLcie1DVP98k8Kk43J9HeU/7DyVzmp/8/bgCtlFbd/DKD87y7/JOq3k4mUEwHWBCh4ajadazabQx9aOfvlIVALlaUxZEBLat6o+sugjJmd/R2tVqPbmTUp/zHqYBltILS3hm9z/e2N8o+D2rvbwGPL/67+7u7PpvzLHgMo/4ePAUk0USPAmr7Hl+ZLjxps5+aa3a+W7/wVAMV/tt3uuNvbtru+brubm1t3e9sZeVk3rgRa4my1mm5+vuU/T7/XZ9lKWbyaVefGFe+x2ypHKP9b/wz0+9HL3xWWmvWM5+fDs9YziMs/f15179xsWzxf7bi5afsvPQPVf22xxoP2qOWv9haXv9pbf/nXfYDvL3+VeV7+bb/FOurRgri/U3mH8g/PQM+D8u8f3Hv7oFD+t9kYYNt745S/yrTZVBto+TFAzyEeb3q3yyn/vPw1Blv916/qf+KVWAKsKQqubFlclV0VfX19yW1tLbuNjWW3uDiXDbyhYbXd5eWNOzm5cMfH5/6r3b72D9wqwH0DTNhWCY1rZWXBbW4u+6/V1UX/+fpv8fYkAVaSfalcrq5u3K9fl1n5n55eudvb22ypfnj55w1wbq7hlpbmuuW/4tbWFt3CQqt7riiNOk0CrBB4JllwdXqal7+eheq/1ev7JhhW/q1W4tvXxsaSL3+1Oz0Pyv/u8tc/q/zPzq7dz58q/zN3cqLyv8n6sWFngvr7u6bv59QG9ByWl+f9apbz5+M6DPDRAG/1UsHVxYXK/8IdHZ35sUBjwrjlrz+n4Er13saA5eUF3y/ZVhhjQD4GhMAz8X1NGIPP3dHRuX8Oeh52jrashSwCrFICLBd1OM4PsDs7q+7337fdb79t+o5fg4BmFnqAV1e3vkF9/frTffhw4CPoi4ubbDDQn7urMYTPCpUgbIs0/KD+6tWme/Nm2+3trXc7uIb/MzZo1f35qGHZzE6d29nZlfv2TeV/6AcbNa7r69AZ2cHHYQO8ytUOaCvA3dvb8M/75csNH+RqFm/lr1/rftDUVjpUZiqP8/Mr9++/v9zHj4e+jFT+V1d5uSZJY6QBRn9GbWt3d839/vuObwca5LWSq05Vf59WZjjo67L+QmWnweXg4NR9+nToy1P9j/6dyisfiEbt7+bc9vZKt7/bcltbK36SJ6H+dyj8bvmHAMu56+sbd3h47j5/PvJ1UxO+OMAaNsmw8g+TkaYPcBVYqfxfv97yY4+eiZ5hqP+Uv8os1P8QYKnPV3D1+fOxazYP/Rh8eXmd9dllvRxGgFXaCpatPjV9gKVORhX+r79e+qBHg65WsfTwNLirc1MjOD+/dgcHZ67ROMsaTaOR3jFIFd8YSZIQZOnv3t/fcH/+uefevt31A4x1pGHps94DTGhcSbZ9qjLRqokCUQW7mkEeHp4WynXYoVP7c2EGmfgZ497emnv37oX/0mCjZ23bkHUf4C3AVfnrOagNaMXk/fsfvny0iqL2UFwZcYVtpt6/zzpBfS0tzftB5e3bHffnn/vuxYs13wZttVgBNQGWy7ZPVcbqgz59OvJlrsmeyt9W/Kzc7RD2Xf2d/pv+zry/23F//bXv+yI9E/09Vv5wvv5r4qVy04Ti69dj3y60khvK3+q1i1Z7+8cAF705a89Vfb6C2//+96X/VZM+m0zqGTBGh3OyegYqQwWz37//8mWnMVj9v8rb+vZGSVewE2A9embuet5cChV+dXXBz6rfvNlyr19v+38Xd1Aa3LUtok5OHZQt5/a/hXb3DEaDkGZEmsFrO1Kzdw0yWq4vrrYwwNshdKMOTZ3cly/HvvytMwuNKy0827tWUGyA1/+vMt/fX3f/+c+OH+BjdR/gLcCNZ4Ua1HXu5Nu3E7e4OJ9tn1u5DmsDvWck1La0RaKJjCY1agfxCgwBlutblVLdVxlqkNEEQYFXXv/vPjeY93cu2/rSoBX6u1Xf1+kZxP0dKyj5CpbRJE//fHh45oOhsOJqdXu0+m9bf9qO1TPUJEPBlSZ5GhPyCWGHNwl7yl9lpzJSP/Tx45E/O2gLGPYMCLCmZwgpDCbh4GE46D4/P1fobKyz0+pVfCC3+P+PvnJmqyhqoPr74oblskPATN97hfJvFV4KGDWY7n3u+UHfVl/5O9cf3MH5clJ55eU/ONPBsKDN2PZvWE2Z69veovzvLv/4pYwBNX7Is8gngnafkK1m9fZ38cCGfFJgZRXGgCR7KUkr6EN6ob52YCteakv6O3v7oEaD8u+l8ipjDL73cyjqSc3a02w/dxA7mzDKitV9wV28bchy/Gis/PM3R0Yb2PsH+bTwrJmtj17+xTaQPqjuF9taSvk/uPwf399R/g/pg9JHv7UWXzZNH/Sw8ncTui+MAKsUyZ2zu/sGh3EH9cGNq9xXS2sSAk+kQfEMxglOJ/NcMXr555OLaXyWlP9Dgy2MP4ZOAgFWJQcRTGPABp4BABBgAQAAEGABwDC8zAGAAAt49sGYu5GesfQp+6kof0ufg1l6rjzQcctsUm2AAAu1pHuZ7HqAchKuYqyOp9HIbsy3+8QeFywn2XUNGK387XqAhAhrBoKEJMssEW4rx/1tIBlwRQwBFh5pkm9NTOvP20vXWVgaoWG3tlP+kyr/dt9r0nHANNqss5hAXa+pD7qmhJdNBpd/SLA97O3jdKL1fxafy+R/trSvHbiea4G4qmc0+VUlaaEsyxwLuGi0JgOcbs1WegB9Ke9SCC7uT2w8Kz9/b6ocpcdRLjzd5Kt0ObqZOk5RUfbArM+0fGP6PA1w+UWNs71daaly7FLLkCrnwv3770+fJifPgeeySy+HlYfVWXtOqttKN/Ljx6nP7aZ/1iWCpMop6k2Vo1yoagfn5zd9KVrK7hP094d8b6ENWAov52ajD4rvErO6rgs/7ULXMldW7fmE+0OTLJennqUyU4T0aQv+z+i/qawZAwelyjnxGT3Ud6iMwniYlNofE2DVonKl3ZyHp/5LefhCYtFOtLSczPRMP9xo38g6HaUpUi4wBVlKPKyysBvAyw54VK4qb+W7UvmHQe26kFh39ss/T3arstbPr2TbGuTVwfWWxbAA1/5cuP06T1z8/v2B/3s0yOiWfs32bZUGYYBR+VuZaYBRWSnYDfnqJrdlogHs50/lPPzlc6/mg9r9ydWrIFz0HOqwgqu1tUW3vb3q09cojVnZW9dxf2FlGxIXN3z/rsAu5NZjRSsus5DVIfGTMJWTUtUpXZHag00Ey2wDBFg1oEamGasGtP/3/374hqhO1Qa10PHOfoBlqyPqDLWKpNUTNS6VjeXAiwf4MgNczTCV9+2ff364T58OfeNWx2hpdqo+wIzWwTX8rFurhVrN+PXrwpe/gt08wGrce1A3/nMhce6N+/Hjl3+GCl6XluYKufW4eDEfYKydq+4pyFF5qR2Euuiycr0rD+djAqzj4zP34cOhD4TVFsKgFhLWV/3snG03heTjc+7Fi5CXVH2rcg1qRbWsyZqtNCpfnn5vwUKjceif6erqog/yrK9jgtE/BuhZaeVWdTIEWNd+Qmbn2Eqb1FDsdQiwwgqWBiEN8P/7v//6SqWGaTnEZnmAH7QValsWCrT0q61gTeo8VljB0gBz4P7nf765f/898Z+tz7Ktmzp0cHHQf33d7j6Dm2wbb7QtwsQnOrfg1crWJhF2eNtFWzdsERafQUirFbatVQ9tGykv/3ILLF5l+fvvbz7Brk1sFIT05i+sWv9iW9EqP23PvXlz4X+m7e0Vn4S8/EAhz3ursrWjDlolt6MQjswSd44BIbWTbVuHMSCsptokpJxyI8CqSeUK51Su/FaKtmW0PaABTpUpnBFIan8YeFJnodRY1QlqQFEgoPLX1owCA33m/HzTDzKU/+hJt+MVrjC4hfLF9NV/m9Covmu1TNvyOiunlUsFWApEqhxgiQZoC7C0Paiky7/9tulXVyeRGzB+VipDO9uGMoLXxK+yE2Bh1CHeN0IN8uoItF2lFS39XitY6hjCCsrsjvBx8BIfkg7XNTQmftBcQZaCgDBjuvbPQJ2vZqK3t63u2QBXi/K3Z2Bnbx577sG2QULy7rQveTGrV3eVf1J4BpM8aG4rBvayh/VBIcBq+DNzVX1ONoG9uel0z/k0u6si7exlosl+fjqgDQyalNAGeseASbcBAqx6xOV9jSxUpHw7puwzF9M3Mxnt3z3VZ8crMdbYZ3k5v7cM4o5sEpcjMqDcVx7JVLS/uA2E76lqbUDfe9rXl8Y/39PXRfueMGqfMKnnRIBVm8oVInXNrmxJ3t7gsTNAddqiyjvB5Ak6wSQrf5WzPQM7FKvZez22CNOeMimn/O1MSnhDjnuvxmkDeflPOgrIL4IN9b/l20C+Rdiq5CQvfM/5dRN2RYO9sfkU109Y/bcVGer/OPU/vvJFX+Vu5xJg1agiFTu4egdY8YD/FD/3oPKP3+LUv+sPQma89NMy63fcSWKcNvBU9b84yQh1Xn1QaA+Nyq5g9d6BpZ9HX/Z28FMGWdwd/rj6X3ZbIMCqW3VK0wFfru/cCiYfXPS+3cYbP2UEbJRhFSY1vQNaaAtpBVew0r42Hdpx+uR1kfo/fQiwajOY52kUwmH3dvctwrAkGlaw6tM4462Rp5plDhpkiKnKmjS46IA7hTr6qkdS+u3VjwsQqhjUP+/Pkk+QU+59G3sMSApXw3DIHQ9uhJarKgRa4dX28AZFuyYrWPYDJtFbbHmj4mB0let2p1u/02gFwbFlOLANxC9WJN17w56yrNgGL7s8bQJdfIs2pf4PHQOSbmLsci8XJcCqaaWKbyoPwUWj8PunOo/xjHOWgbP36Wr4ePhs1PkLSMOMnoFlWBuw8qpDBoG6yC8XtTeSebZ31/8472ASvWBRbj9MgFWTSqVZqi6/W16e9xfh2Q3m4a2XVi22CIvnnYr3x8QreKxkVWd1IARV6iCb0V02T72CUL3671y+pZq3Aep/1eq/Bct6ScAmjL1BM23g7jGg2P+npb+FTIBVk9m9cmFtbCy7ly83/Y2/6+vLfovQkpPel2B3FhpWPlMJSYB10acSPevCQ0t+HZcZpnVgSQuDizIRLC3N+5xv+tXqMy9v9K5w2LZg2FLVJEv1/+zs2l9+G5IvW+CaEGhNcWAVXw2hNxZV75eXF/wEWhPpPFdnWtqt5LM0BtjF27rwVhkg9KvOJJd9jpMAqxYda+JWVubd3t6av3FYA9HZ2WWW2iHO3TbLjcu2RHVWQQ1KaWuUE1BfKpfb2zCbCWXC6DLNA0wIhkPdXVycc7u7az7n2+7uqq/fTZ+sMCXZbSSs9IWjAFq9Vm5Aq/8hy0A7uzok5HqkDUxpC+jW6ZAoWzsQmjyr/r94seY2Npb8pEPPz84mIk92rnJpt9s+dZzy86r+61cFXHYbflkIsGpSsTS72d/f8IPR/v66n73aPn1+Fmk2G6J+TLufRr9qMFFyVCWc1c+tWbzlRdMXM/dpf57hMLtekdfWoGbvCqzevXvh/vOfHZ9gVwOMrVSGoKHeAandt6YBWXVcEwzlxFQ5qS9Qe3DdbUOVa6PRjBIKY5omihr/FQSEfi0ki1eA9ebNtnv3btf382oTNplUG1BbqHsbsPvX1BYsMfb79we+zivY0pe9KFPW2UQCrNoEWGHrZH19yQcYtnXytG8PPd+Mz2Z6KgvN3rV6pYam5LNfvx5nGdTVcWmW33tHFaYrwLJA2La/t7ZW3OvXW+6vv/aziYQl2VZ9r/tqjMoq3DDe9HVcEwoNwtoe1wzeLh7Wf+Pg+/T3Z9YGnAvPdH190b18ueHevdvzkwyds7XJpG391p2CK9Vz9RmaYHz79tMHoAcHp35bNfQtnWwMIMDCyBRg2HZK3akMVBZaFtbKXkjTkfQdcJz1/IxVno3Gb0mp41SwoFm8tgo3N5ezP7u0RHkNsrS04GfsGogVoNpr6sXLMhu83Tp9oXL0jMJz0tavAgQ9y52dFb9DkaO/v2sMUHC1sfHTLz6ElS1XKNtSFjcoatRRuDOmU7jRHtWbybvCG6FhOxD3s7LictbZmHCEbcM0u+sQo48B9gbtJJoAARZq2imFt2uKAwuDTFUDreLKC+4PsFImFzPXBorXbeD+wHTSyeEJsADMzCADgHbwkGCLAAsAAKACCLAAAAAIsHA3Xq8GAGCskXNCQycB1gxUjDhhJXc3AUA9J9c2FuD5gysCrEpLs4YVUls0/IVzutMJAFCfACFkqmhkt/XjfuHi3UY3b+Nkcm8yGle0QdlMJaQDaft0Lycn5/5WWt1qrcqjez6UYy+kFZnhULPnDZCQcyrvbLiZGiG9TidLndObn63q7aP3gty4/jPgzuLEOh8HVJeVnUJJi5WZ4ujorHuTeyPLMUmqnBBQ6UsuL298OSmjwdXVTeHusDJ3ggiwKtiJqlGF/IHhPhsFVwqsPnw49H9GjctyjqmBzW5+vSQbPG3AVLkov5oS/qoc9LW4OM/Wac1pkDk9vfQdqn4NnWpeZ/JtlbSCbSC//0g/hlaydTv16mqo/yH5NUHW7Eywk25qr/DP6uNVp5Xy6J9/DnyePT1//TlyEeZjp+3yqBxURhozv3w5dsfH574/sJy1NrYSYNWzeXVXZBpZA9Kg8eXLT19BlGNvaSmkvgi3Nacz3riS7OcMOQebbnV1wWeWf/Vq0zcqpQLhXEK9qQNV21CHqhxkP39e+NXdEGA1fLqRqtZ/W50L7Tzx7X97e9XXf+c2ff0nwJqdQMG2BNM0BALKNaggQcnrb246vn4rdY7+m/pFSwxd9wBLZWbtQEGnBaVKmaYVLbUf9QVhy5AAq6azF5vBuCzAUk4xJSxWhfn06aib0NJSKKQzfPFc0u1EOt0E1mEZWIOLlstDlvmlbm46Aqx6B1i37ujo1L1//8P93/999x2rOlXXzWWowLzbFVcywFL912CqQFGrVq9fb/v/qlWsra1luvqZm2Q3shv4FWBpa1D9oAIty7Xquqv73NRvY2f+Mpjaim2ratwMAVa+glUWWl0F2ezFdfMpnZ9f+xm6GleZ0XdVhLNm4ZyBZm57exvdX9f9wEr/AtWPk5NL9+2btlF++ImIttZddti1WeHZeep/Ps3KFSwq6bXqvM5ivn59lW2FYnYm2Ta51K9hi/DKXVyEVVrOnI7ebtQ2LCehJlcWYJUVlBJgVbqRhVUqNbCbmzTLr1enVAmakcQHObUdoi91OL2HF1Ff6kBtxnpycuEPuCrA6j38WtWBQvXfAiz9TDo2cHl5nU08MJtBluvmlWy3275+W45JjDZ22IpWfA4zvDxWzmcQYFU/Ds8OeeeZwdNozz2Z8UYS9tPDFmHql8b1z3GW9Ir8JOQQm2gQ4rptJGynhUlJmLVW/e4g2yJUvdfPE7YLOyT+rd1qTCer45YAvQ5jwHhjZXEF0M5fakfIjt2UiQBrJqJw5ytHOPher07Vzppp5q6OJZynSbIZCWfb4aK7guyga3ijKJxTsfuD3ASTvk7y57J6L/azTXf9T2pV756iPC1YUP/faBBYj9MnTLKdEGDNgLDnnnSDrDq1LOtYOtlAo4tW9aUzNRpopnOQSZ64A4a92q46oe1AXeVhKz6hzjS7g1JauZ8rv6Kk43+++fmw5ZkHWtWaLFVxgvfc30O+Cktk9ZAxJO+Xyz1SQoA1Q9F4aGBJ38A9i7OZ+OfTilW7HWZvvatX0zq4xN9bHgTWKdpKn7xuWpBlr2LnE5P4zaGkMu0lrz9h5cru+rGbqfNzJckUfc9J4fuOv4qDXZX6orTn53n6cu/t/+swBjy0vfSXRb7iV3Y5EWDNwlCV5q/j1u2Aox1ytwtV7QzWtJ1BsWcUDqR2uufGOt2BsN39M/V7dk85sOZl386+nCvO/qu3gpJE58qKZ7DyNpBOTf2378vaQLgEOZ8QVXUFy34eBbV5/9PJzsM+Rd2258wh93ECriQKTsufkBNgzUhwZYe6bbsgNLLZP4Nkh9ztDZrQwbULg8vz9zdp9ozC4Wr7us0adm/qllmtq3ao3Ln8TFTD721Ptq5a+VuApfLXm3dxG6puuYY7fULA0uhe2dDOBvgp+S6zANfqv77nWZgU6ttXW9bPpPqs38d90KS37fKXnNKePq8eY8D4fVC+2mgr2eGAuyt91ZEAq/pVJmtQ+SqWe5YtmOcKsIodS/H30/Dzx8vP8UqWpTCapu/1aeprPvPX2zt5poFkos/AvnSVSTwQVbn8e+t//vv8552mgS1/BsW2mreFaq5g3VWfnvIZxLsYdRoDxu1/Qpnk913l/VD5n0aAVf0Qw0ffobI0CoNYLX76RAeXw8xRnVy4B6sVHfKdpu8zHLDW97e42MpWc/KLLuvx3OJgqnjAdLKfabnIrPzDHWn5IfcqbxHa1pTeJlQb0EH3aUp0bmfC5ubCIXw9g+vrOT/A6ZmE7BNJ5Vaz7HsO5R/KW+UfXrR5qpcMbAxoRvWXNwnve26D+qOy6x8BVhVj8KgSqAG3Wq3szSg16iRpZCsjszyDsTaS3+TufMf94sWav81aCU8tuedzf596LktL8z5tz+7umh8Udcu8/psFg3V4VnaJn93dZFtFdnfZoA6wDCpfpRBR6qSdnVX/mRcX19lFo1W8piE/tBtuclc70M+puq9b3JUmR33CNARZFnisrYXyV/aJlZXFboDVKLTTqr1kYJc92xks5ULVz6ifVXWuMYFZXj4GJP7FHo0B4e3RViGwrs/K+GjPy/oVu8U9XFIdtnctZ2OZ29YEWJUMsFyW2FWNd2VlwXeqGrxDp5rPBm27YJb34e2Qrw2WKofff9/2OQnVwU1B0/aDy/b2invzZst/vwoCdQbIgq9GY/aT8dpbbRYQKAeY0jvpSzfvxwmLy66vCjRUL377bdN/tvLzWRqlcHdao8L9QZoFqNYfKNGzUkVpsJ+Gn03tcn19yb18ueHzvqmfsgA3vpOsqiwXpOqtJlL7++v+Z1VeSK3alf2886s5nA+u1tcX3ebmip9ALC8vZAErN7vnY2b8trD6GtVDZXVQ/6Pk76qPZV9QTYBVwYpit7Zbx6TOSh2qBm91qmpgtr+sjjc/4zJzc5IswLLZh8pkZWXeB1cKYtTZPfcM3jpdrVzpWayvL/s0LeEtQhddGeBm8h6bEOAn2cxaz0ud2ffvJ+7jxyP/z+rsrq7CIegQiDVKXcWyALfd3vUBiAI6e4swP2jvKvYMksKAa1uFWsXVhEv1X6so0xJg2cRncXHevX691T3k7rr3k8VXDFSr/PX9Kriyc2QK5hVMqr3rZ9aq0iTGgNCvN7tJ7Zfdmzfbvly1eqY6ELaPO/57m90xYPQys0t4XZQg+8uXn+7jxwNfF5Vayl7EKKvvIcCqUjiRFN8YDPc+hQBLs6U//9x3b9/u+MatGYz+XFj6nOXGlRSWdNUw9LMvLc35oEZfz50GRZ+v72d3d9VvW+7vbxRyxM36JYE2iNrlr+rANHN8//7AB5maQR4cnBZm5s1muZc4asBRgKUVTQ18etPLPqva5Z9fL2H1SWWsgFJ1TfV/GhJZK8hQEKDVdU1+tHpoW8KzkHEhLn8F66pvKns9gzLzXFo5xStTFmApuPrvf1+6337b8pMIe6Paru+o+8JEvBV9eXnrfvz45YPhi4srnyTbzjOGiQorWLVfxdIgpEakwVszpVevNtzbt7v+98ZWd2b/Esu0MOj0JvB8bmrI6ggVDPffGD77z6a4Sud8gKXO/99/T3z9DSuuLrsXqexdjXDOatEPPP0J0ZOZawP53VLTEbxocNPKsgKO/jMus1z+5Z8nLN55GF4SUL3WypWCrD/+2PXBnbGt93rnJEwLEw2Vifod9UOfPh35CUDxjW5WsAi0uo0mvJ3T9LNWVZpY2P5oUljTsNaQ2FYItJIUXspoZjePDw6Wyy3/cG6R8n+u+k/y4UeXYmGibedrbYXYVs5iVT5fOCm2yjvobfMyJ3eU/AxE5r03hAPTLr9pvFPLDARAeRPt4kW64foRjNIHFe8vK/8zCLBmonE5BilUrt4CmEywhfHH0EkgwAIAACDAAgAAIMACaoCDuwAAAqzZGdaTPAVAQtr0sQIiiut56y1B7vOXv/UfeL7yL//v5YE+ZAwlwMIdg0p+7xOv5I5G1yXYPVkPTThsnZklstV1A5T/iB1Po5HdjRUmBsmj2kD8DDB6+TMxe95nYPX2sY+g2AfxPEcr/2TidyXSG80IrmkYj8rJUkiMmqvx7rdN0uxCV16RHk273Y7yfvVmGrj/YfRe4Bi/po5R6n97hLxrvI026f46vpF9tJWUdMAkz3FVz4P6oHwMcBNaVeSi0QqKbylXJ2lJK3UrtvIQ6iZ33ZysCjT7qXJGC4xC3samLzeVydHRmc+Fd3Jy2U3b4fpufx808NjAHicu1v//69eF+/79l1tfP/J59nQzsCU1Drmt6l3+dhmuZtiWKufbtxOfZFX118rIZvPDyivfEg//rLQ3ShytdDufPx/74EGXCIZcnO0s52Ody1/lZZcqqj84O7t0X7/+9GmKVF8tMM1XdcstMP39Id/bjW8v1i8pYCh+3uwGdep/9KV6qTL/8uXY90NnZ9dZUJTf/j6s/scX5ia+bC8ubvzfpWeqz1CSb/0ZGwPIRRinykl8PdR4eXDwy/cdoYxc6dkPCLAqVkmsE7SGpgj87OzKD1YaVM7Pr33ahNCRdrJkz3VPkxC2T5tZfi41KiX6VJClxMsqq7hc7+vg8gDXEhf/cv/888MPImtri91ckGl2mWbdyz/kiGxkAZbq6bdvP/2XnoUlWI0z3t+1stIb4KqzPDw89bkN9fd8/bqc5X9T/af80yzZtgVYSmyrOvv581GWtigu17KF5LoXPgjWs1Kybf07+97Cdtls34+mrTs7QqAgU+Xw8eOhOz4+8/1Gb4A7rCwstZSV7cnJuZ9cqN9R0KxMCXmyZ8YA1bPeZM8qJ6XJUR5C9SE2ESyzDRBgVW71KikMRGo8Wj3RbOjq6sYPWJZJ3ZaNuXfOVqdCJ64yUVmpw1cnpwDVcuDFA/ywzk276+Hv6vgZqGZDGqSUQFSdW55br0P596y6ql5eX7f9wK7y//UrDrAa9x7U7R2QNXv//v3UP0PN4pUqRB2p5Tbk4sW83lq91ACjwFaDiwYa/XPcRsoOdmxA+/Dh0H34cOCDuzCoFQe+OpS/627Rqt9QfdUzUMDlXLH8716NtAArTAStbBuNQ9+X2QTP+jpLak4flJ93s0meyk19kOqiTcTLPMdJgFXRhmoNTRVFjUoz9Z8/z/3WVDjkmHTT6DiWh9PePGhpd8ui7QOtsEXYKZTraMFCKFutgFmgq/x6eW49yv+u8lenr1m7yl7PwLbxRtsiTHyic9c9e2IrWLaSq8Ga8u8flOM3Z1X+Gpit/MNqUlz+5RZYWGXRRPDI/f33N79yYxObsHXWmNltQgtU45VxC3JDG7jpWcEaZYJhf2+SrQ7aqpgdhcg/e/RzpvXog8I/q8+5vr7ptoFb30/kk5By6iABVmVXsfIBxiqIKxx6pJyGBUiDymjUvfdBHWVYEaD8n6b8iwNQOGfV9gN2/P/zDIaXf28ZlXn2pFc4JxRWDLTaq60ZrVyq/1JAoC3dWd8ivK/8XXT8Y5w+KJzDDWdxqf+PK39b5eqU9J4AAVblI/M0WwbOl4PTaNZEGfXPJPOt1nBdQ+PBg0ucaNXK395MpPzvLn8FSDZbfOy5h7zud/rKn2dwVzDlsu2Qp3hdXc/EDlwrEFCwpS0aPS8FV/PzzdqVvw3mWnF9TPkXx4D+N0Op/8PLf5JtgADriSLlCX6KS5K08Jl1Xw4e9XmUUUZ3zbop/+Fl0v/7pIJtj/7osZ/dfz1HWqvyn1RQS/0fr0wmddkoAdaEgp6nrTS2EpNme+4YJTAd7bXoUZ5BWAVLu69OU/5PW/7hTEqSNPzZLA61P6T8k4l/nq3W6LyVrVrZClZ463P2r2roL3/36It28/qfRG8X0gZGKTfn3ESvCSHAenQ0XDy8O6kUCPdVlHgVgNnL/cocgyn/5y7/4iBF+T/9Mxj1GYWbxpuFO6HsDNasr2A9VR9E/X9o+SeltwkCrEc/HHsNPM1u+rYzIM81kWYCX5+BC5R/xZ7Onc9MK8A8O+r/LBk7wBoUHecHS/PXouvAlhXDW2S33d83/RtNdsEk2xUAcH8wQFeJ2gdYgxpInAcpf4OnHjfHKsaydBz2yn7Ic9fpe5sJAECnCAKsgcHEXf8+v102vwCtDvLXncPPGw6bJ48+uAgAAGoSYLlsxcoVMlDr0OIk81hNO61g2U3IStOxurrolpbm/Fsyo14cBwAAahxg2aFu+9IbIMq9pgTDCi6UBy+kqnBZLrBZZbGktgQVZInKYm9v3b14se4DLUs6CwAACLDuDq9SF91Y7XwAsbGx5AOKvb01t7Gx7POxhUzeaTeT/Wyz82cSymPZvXq16ba3V33ABQAACLCGSLoBhQ5x+3DLr2Ctry+7N2+23Lt3L9zLl5tueXneb40p6AiHv9OZ3jq0tyhdNxu6tgfX15d8oKUVPQAAQIA1lL0xaHeW6FbetbUFt7e34f7444X7449dt7a25A97K7jS2aT4vNYsiu+8CmfS7LbiFluEAAAQYI0TUIQASys2Cwtzbm1t0e3srLr9/Q0OdgMAgFprPP6vyA+8x2eRAAAACLDGEG/1FdPDpNxcDgA18PAjH+xwgABrpEZEYslp7MAAgP4OeM46OMIZrGKWbnsbMM/ejcfN4pLCg7Vb8fMyZ0UQwPT0WTYOPOzlpeK4Efd79Hd4zrpdjHMGB1zjxjz3Blj51l8nu9cqXB7aie7DSgtv0mEUaWFrNS7Ldjt1zWZKzi4AU9VnaQCycaB4J+Jox0Pivs7+P/s9/R2ev253/PjbOyZb1R43xmmN0hjCdQv6unXX1213fX3r3x7Ur73JjTHi4+x2TnaVhcpSX5xjAzC18/wkJLS363d0HY2NAfF9gHf1dxon7P/XeJIHV8Dz1+0wHt92r6JyUd1+WHzTui8IyCO5ENm12+1uMOX8r/qyD48jPdwfYPW+fWlBasjryNuYAKaPXSCtWb/1/70z/UGT9eJYUryEuu1vrubMCZ43wLJ6qXraavXW7/H/ztZ9H6jKr4sz7fJM3dwetrDC7/Wl32tFK+FQ1lgPU/eF6UvlpwtJ9aUHqV9V1vE5BwB4/n4rySaIlskjHwOSLAftoLMrYSxJsv+n2N816e/w7HXb6mAIsBo98U3JAZb+UuUVXFmZ92lftrZW/IfZFqESPG9tLftLRpVzLwQFPKhRqDPSTe8qQ+VyVNnqny2BNjfAA5jGiWHYNmn7QGppKYwNq6sLbn5+zo8Lg/8/jSVNt7y84NOIbW+v+H+2gUx9H/Dcddu2sFUvFftsbqpuh/im2Rx/TB5aq0ManEW3t7fu3r698jn2Tk+v/DegAEEfqm/g9estHyDon1nFGrHgW81uiiGV7a6/Df/i4toHWLY6CADTNgjFZ27Vb+3urrqXLzf8RFGD0qAhYG6u4Qeq0N/t+Byt5+f0d5i2ACvtTh7CyqrimhDfLD8ovhkaYFkE9/vvO36G8erVhru6uvXfQL4CM+92d9fc/v66n52QJmc0enibmyvuzZtt/3t1UOGQu/PL6HfNBAHgOcVvEarvskm4UqUtLrbu6O/CWPLmzZb/f5RSzfo7OyYBPHeAZeehwzjc8Cuzim9evFB8Mz92fHNvgKUITrMLNY6rq5vsAJglNVZjUWClRqbtLgKs0VjwqjJUdHx5eZM92HCWgXIEMH3iF5rUf4VjJAvZUZG7JpTaStSf18Ty8vKa/g5TWrfDr/Eikuq2Aqxxq2mSDjlVGF6t7URvC6bZ4UYXXTaq1RY7CE+ANeqDvKtsudEYQDX6sPjwuo0Bg4Il+jtUs24/Lr4ZGmABAABgfGx8AwAAEGABAAAQYAEAABBgAQAAgAALAACAAAsAAIAACwAAAARYAAAABFgAAAAEWAAAACDAAgAAIMACAAAgwAIAACDAAgAAAAEWAAAAARYAAAABFgAAAAiwAAAACLAAAAAIsAAAAECABQAAQIAFAABAgAUAAAACLAAAAAAAAAAAAAAAAAAAAAAAAAAAAAAAAAAAAAAAAAAAAAAAAAAAAAAAAAAAAAAAAAAAAAAAAAAAAAAAAAAAAAAAAAAAAAAAAAAAAAAAAAAAAAAAAAAAAAAAAAAAAAAAAAAAAAAAAAAAAAAAAAAAAAAAAAAAAAAAAAAAAAAAAAAAAAAAAAAAAAAAAAAAAAAAAAAAAAAAAAAAAAAAAAAAAAAAAAAAAAAAAAAAAAAAAAAAAAAAAAAAAAAAAAAAAAAAAAAAAAAAAAAAAAAAAAAAAAAAAAAAAAAAAAAAAAAAAAAAAAB19P8BFlT/K8QOaigAAAAASUVORK5CYII=;" vertex="1" parent="1">
          <mxGeometry x="-2162.5" y="3015.14" width="60" height="31.5" as="geometry" />
        </mxCell>
        <mxCell id="WS7tdzHbWe4_qbeAku0G-8" style="edgeStyle=orthogonalEdgeStyle;rounded=0;orthogonalLoop=1;jettySize=auto;html=1;entryX=0;entryY=0.5;entryDx=0;entryDy=0;fontSize=12;" edge="1" parent="1" source="WS7tdzHbWe4_qbeAku0G-9">
          <mxGeometry relative="1" as="geometry">
            <mxPoint x="-1844.5" y="3025" as="targetPoint" />
          </mxGeometry>
        </mxCell>
        <mxCell id="WS7tdzHbWe4_qbeAku0G-9" value="Managed Gateway" style="rounded=1;whiteSpace=wrap;html=1;verticalAlign=top;fontSize=12;" vertex="1" parent="1">
          <mxGeometry x="-2025.5" y="2990" width="140" height="70" as="geometry" />
        </mxCell>
        <mxCell id="WS7tdzHbWe4_qbeAku0G-10" value="" style="sketch=0;pointerEvents=1;shadow=0;dashed=0;html=1;strokeColor=none;fillColor=#505050;labelPosition=center;verticalLabelPosition=bottom;verticalAlign=top;outlineConnect=0;align=center;shape=mxgraph.office.services.network_file_share_service;fontSize=12;aspect=fixed;" vertex="1" parent="1">
          <mxGeometry x="-1970.5" y="3016.4300000000003" width="30" height="28.91" as="geometry" />
        </mxCell>
        <mxCell id="WS7tdzHbWe4_qbeAku0G-11" value="Payment File" style="shape=image;html=1;verticalAlign=top;verticalLabelPosition=bottom;labelBackgroundColor=#ffffff;imageAspect=0;aspect=fixed;image=https://cdn4.iconfinder.com/data/icons/48-bubbles/48/12.File-128.png;fontSize=12;" vertex="1" parent="1">
          <mxGeometry x="-2272.5" y="2990" width="30" height="30" as="geometry" />
        </mxCell>
        <mxCell id="WS7tdzHbWe4_qbeAku0G-13" value="Batch Processor" style="rounded=1;whiteSpace=wrap;html=1;verticalAlign=top;fontSize=12;" vertex="1" parent="1">
          <mxGeometry x="-1660.75" y="2990" width="140" height="70" as="geometry" />
        </mxCell>
        <mxCell id="WS7tdzHbWe4_qbeAku0G-14" value="" style="aspect=fixed;html=1;points=[];align=center;image;fontSize=12;image=img/lib/azure2/compute/Kubernetes_Services.svg;" vertex="1" parent="1">
          <mxGeometry x="-1605.75" y="3018.87" width="30" height="26.47" as="geometry" />
        </mxCell>
        <mxCell id="WS7tdzHbWe4_qbeAku0G-64" style="edgeStyle=orthogonalEdgeStyle;rounded=0;orthogonalLoop=1;jettySize=auto;html=1;entryX=0;entryY=0.5;entryDx=0;entryDy=0;" edge="1" parent="1" source="WS7tdzHbWe4_qbeAku0G-37" target="WS7tdzHbWe4_qbeAku0G-13">
          <mxGeometry relative="1" as="geometry">
            <Array as="points">
              <mxPoint x="-1680" y="3155" />
              <mxPoint x="-1680" y="3025" />
            </Array>
          </mxGeometry>
        </mxCell>
        <mxCell id="WS7tdzHbWe4_qbeAku0G-37" value="FDMR" style="rounded=1;whiteSpace=wrap;html=1;verticalAlign=top;fontSize=12;" vertex="1" parent="1">
          <mxGeometry x="-2025.5" y="3120" width="140" height="70" as="geometry" />
        </mxCell>
        <mxCell id="WS7tdzHbWe4_qbeAku0G-39" style="edgeStyle=orthogonalEdgeStyle;rounded=0;orthogonalLoop=1;jettySize=auto;html=1;entryX=0;entryY=0.5;entryDx=0;entryDy=0;" edge="1" parent="1" source="WS7tdzHbWe4_qbeAku0G-40" target="WS7tdzHbWe4_qbeAku0G-13">
          <mxGeometry relative="1" as="geometry" />
        </mxCell>
        <mxCell id="WS7tdzHbWe4_qbeAku0G-40" value="Batch Validator" style="rounded=1;whiteSpace=wrap;html=1;verticalAlign=top;fontSize=12;" vertex="1" parent="1">
          <mxGeometry x="-1843.75" y="2990" width="140" height="70" as="geometry" />
        </mxCell>
        <mxCell id="WS7tdzHbWe4_qbeAku0G-41" value="" style="aspect=fixed;html=1;points=[];align=center;image;fontSize=12;image=img/lib/azure2/compute/Function_Apps.svg;" vertex="1" parent="1">
          <mxGeometry x="-1788.75" y="3017.17" width="30" height="26.47" as="geometry" />
        </mxCell>
        <mxCell id="WS7tdzHbWe4_qbeAku0G-63" value="" style="shape=image;verticalLabelPosition=bottom;labelBackgroundColor=default;verticalAlign=top;aspect=fixed;imageAspect=0;image=https://upload.wikimedia.org/wikipedia/commons/thumb/a/a3/.NET_Logo.svg/2048px-.NET_Logo.svg.png;" vertex="1" parent="1">
          <mxGeometry x="-1970.5" y="3150" width="30" height="30" as="geometry" />
        </mxCell>
        <mxCell id="WS7tdzHbWe4_qbeAku0G-65" value="Payment Service&lt;br&gt;(Azure)" style="rounded=1;whiteSpace=wrap;html=1;verticalAlign=top;fillColor=#f5f5f5;fontColor=#333333;strokeColor=#666666;" vertex="1" parent="1">
          <mxGeometry x="-1870" y="3250" width="390" height="240" as="geometry" />
        </mxCell>
        <mxCell id="WS7tdzHbWe4_qbeAku0G-66" style="edgeStyle=orthogonalEdgeStyle;rounded=0;orthogonalLoop=1;jettySize=auto;html=1;entryX=0;entryY=0.5;entryDx=0;entryDy=0;" edge="1" parent="1" source="WS7tdzHbWe4_qbeAku0G-67" target="WS7tdzHbWe4_qbeAku0G-70">
          <mxGeometry relative="1" as="geometry" />
        </mxCell>
        <mxCell id="WS7tdzHbWe4_qbeAku0G-67" value="SITI Agri" style="rounded=1;whiteSpace=wrap;html=1;verticalAlign=top;fontSize=12;" vertex="1" parent="1">
          <mxGeometry x="-2440" y="3290" width="140" height="70" as="geometry" />
        </mxCell>
        <mxCell id="WS7tdzHbWe4_qbeAku0G-68" value="" style="shape=image;verticalLabelPosition=bottom;labelBackgroundColor=#ffffff;verticalAlign=top;aspect=fixed;imageAspect=0;image=https://www.abacogroup.eu/includes/img/abaco-group.png;" vertex="1" parent="1">
          <mxGeometry x="-2385.75" y="3320" width="30" height="32.55" as="geometry" />
        </mxCell>
        <mxCell id="WS7tdzHbWe4_qbeAku0G-69" style="edgeStyle=orthogonalEdgeStyle;rounded=0;orthogonalLoop=1;jettySize=auto;html=1;entryX=0;entryY=0.5;entryDx=0;entryDy=0;fontSize=12;" edge="1" parent="1" source="WS7tdzHbWe4_qbeAku0G-70" target="WS7tdzHbWe4_qbeAku0G-73">
          <mxGeometry relative="1" as="geometry" />
        </mxCell>
        <mxCell id="WS7tdzHbWe4_qbeAku0G-70" value="MFT" style="rounded=1;whiteSpace=wrap;html=1;verticalAlign=top;fontSize=12;" vertex="1" parent="1">
          <mxGeometry x="-2202.5" y="3290" width="140" height="70" as="geometry" />
        </mxCell>
        <mxCell id="WS7tdzHbWe4_qbeAku0G-71" value="" style="shape=image;verticalLabelPosition=bottom;labelBackgroundColor=default;verticalAlign=top;aspect=fixed;imageAspect=0;image=data:image/png,iVBORw0KGgoAAAANSUhEUgAAAlgAAAE7CAYAAAAB7v+1AAAABGdBTUEAALGPC/xhBQAAACBjSFJNAAB6JgAAgIQAAPoAAACA6AAAdTAAAOpgAAA6mAAAF3CculE8AAAvb0lEQVR42u3diXLbxra24QZJzfNgyY6d7bhS2fd/PyfnVH7Pjq3BsmaJxF9fNxfQICmKlECJIN6nSmUncUyp0cPqAb2cAwAAAAAAAAAAAAAAAAAAAAAAAAAAAAAAAAAAAAAAAAAAAAAAAAAAAAAAAAAAAAAAAAAAAAAAAAAAAAAAAAAAAAAAAAAAAAAAAAAAAAAAAAAAAAAAAAAAAAAAAAAAAAAAAAAAAAAAAAAAAAAAAAAAAAAAAAAAAAAAAAAAAAAAAAAAAAAAAAAAAAAAAAAAAAAAAAAAAAAAAAAAAAAAAAAAAAAAAAAAAAAAAAAAAAAAAAAAAAAAAAAAAAAAAAAAAAAAAAAAAAAAAAAAAAAAAAAAAAAAAAAAAAAAAAAAAEqTpGmaUgwAAADlaVAEAAAABFgAAAAEWAAAAARYAAAAIMACAAAgwAIAACDAAgAAAAEWAAAAARYAAAABFgAAAAiwAAAACLAAAAAIsAAAAAiwAAAAQIAFAABAgAUAAECABQAAAAIsAAAAAiwAAIDZ0xr1D6Zp2vNvEkoPAADMkP5YJ3lguDM0wGq3O+7q6tZdXl67y8tbd3Nz6zqd8OFJ8vAPBQAAmKrQKs0XkxTjtFoNNz/fcouLc/5Lvy8twLq+brvj43N3cPDLHRycudPTS3d72/bfRKOR+C8AAIDqB1ipX0RSjNNsJm5xcd5tbS27nZ01t7Oz4lqt5lhxz9AASytWx8dn7v37Q/f+/YH78eOXu7y88UtozWbDfwEAAFRb4jqdjt+5U5A1N9d06+tL7vXrLddup25pac6tri6OdTzq3hWsnz8v3JcvR+7vv7+5T5+O3Pn5lf9wRXJzc43uh6U8GwAAUNkAS8GVdukU42g7cHd31f+7tbVFt7e3NuAs+iMCLP3FFxfXfpvw+/cT9/nzkd8m1GfY3qTr7lsCAABULrRK8phHC0tp2nELC3M+2NreXnGnp1fu5qY9dqwzNMBStKYP1F+srUEFW/rqdJxfPtN/y/8sDwkAAFQ7wApbhamPe/Si3+1tJ3vBr7QAK3xo0v194r/CK4tp9AZh2CLkjUIAAFDNICvJrmSIb0l4zI0J97xzGN4U1GF2bQlq1Wp+vpkdAJuba/kPZvUKAABUN8By3TcE026M0/JxjuIf/fvkAVFWa5QPtDcGdbBdX9o6DAFWs/snibAAAEAlw6ts5cquatCikr7yAMuNvZI1wq1Z6cDf24VcrGABAIDqSrPjUCG2yeOcwp8aM9a59yKr+MMGfQjBFQAAqHyYVXJA0xjvwwmoAAAASg2wAAAAQIAFAABAgAUAAECABQAAAAIsAAAAAiwAAAACLAAAAAIsAAAAEGABAAAQYAEAABBgAQAAgAALAACAAAsAAIAACwAAAARYAAAABFgAAAAEWAAAACDAAgAAIMACAAAgwAIAACDAAgAAAAEWAAAAARYAAAABFgAAAMbSoggmK0my30X/Ns1/l076s9Bv0uXPMxj1GVD+s1P+9EGUf93HAAKsp3p8aeofXDrk6SVJ0m0QSc/gMO5nhQrT6Qz/PFD+01b+xefwuPZG+T9kMA5lnzzyAYzS32Hy5a9+iEcw/hiQ90UEWJUIrjqd/CtU/nTgQ200Gq7ReHgDs06t0+lEn5dH6EnCTCYOgmx2p2JpNB5f/sXnHZ6B/bv4s9BfJqH8wzN4TDlZG2u39WunZ6Cn/Ae1gdAHJdEzeEwfNKy/o/wp/2ktf9ft/638XekrfwRYE3qQ1slb5beZhR5i+DU81PDAH/NQ08LsMZ7J6O9lRtlfXvlzystHv39IR2TFW3wGvc+HUh9c/vkzeGznFp5jKGsLcie1DVP98k8Kk43J9HeU/7DyVzmp/8/bgCtlFbd/DKD87y7/JOq3k4mUEwHWBCh4ajadazabQx9aOfvlIVALlaUxZEBLat6o+sugjJmd/R2tVqPbmTUp/zHqYBltILS3hm9z/e2N8o+D2rvbwGPL/67+7u7PpvzLHgMo/4ePAUk0USPAmr7Hl+ZLjxps5+aa3a+W7/wVAMV/tt3uuNvbtru+brubm1t3e9sZeVk3rgRa4my1mm5+vuU/T7/XZ9lKWbyaVefGFe+x2ypHKP9b/wz0+9HL3xWWmvWM5+fDs9YziMs/f15179xsWzxf7bi5afsvPQPVf22xxoP2qOWv9haXv9pbf/nXfYDvL3+VeV7+bb/FOurRgri/U3mH8g/PQM+D8u8f3Hv7oFD+t9kYYNt745S/yrTZVBto+TFAzyEeb3q3yyn/vPw1Blv916/qf+KVWAKsKQqubFlclV0VfX19yW1tLbuNjWW3uDiXDbyhYbXd5eWNOzm5cMfH5/6r3b72D9wqwH0DTNhWCY1rZWXBbW4u+6/V1UX/+fpv8fYkAVaSfalcrq5u3K9fl1n5n55eudvb22ypfnj55w1wbq7hlpbmuuW/4tbWFt3CQqt7riiNOk0CrBB4JllwdXqal7+eheq/1ev7JhhW/q1W4tvXxsaSL3+1Oz0Pyv/u8tc/q/zPzq7dz58q/zN3cqLyv8n6sWFngvr7u6bv59QG9ByWl+f9apbz5+M6DPDRAG/1UsHVxYXK/8IdHZ35sUBjwrjlrz+n4Er13saA5eUF3y/ZVhhjQD4GhMAz8X1NGIPP3dHRuX8Oeh52jrashSwCrFICLBd1OM4PsDs7q+7337fdb79t+o5fg4BmFnqAV1e3vkF9/frTffhw4CPoi4ubbDDQn7urMYTPCpUgbIs0/KD+6tWme/Nm2+3trXc7uIb/MzZo1f35qGHZzE6d29nZlfv2TeV/6AcbNa7r69AZ2cHHYQO8ytUOaCvA3dvb8M/75csNH+RqFm/lr1/rftDUVjpUZiqP8/Mr9++/v9zHj4e+jFT+V1d5uSZJY6QBRn9GbWt3d839/vuObwca5LWSq05Vf59WZjjo67L+QmWnweXg4NR9+nToy1P9j/6dyisfiEbt7+bc9vZKt7/bcltbK36SJ6H+dyj8bvmHAMu56+sbd3h47j5/PvJ1UxO+OMAaNsmw8g+TkaYPcBVYqfxfv97yY4+eiZ5hqP+Uv8os1P8QYKnPV3D1+fOxazYP/Rh8eXmd9dllvRxGgFXaCpatPjV9gKVORhX+r79e+qBHg65WsfTwNLirc1MjOD+/dgcHZ67ROMsaTaOR3jFIFd8YSZIQZOnv3t/fcH/+uefevt31A4x1pGHps94DTGhcSbZ9qjLRqokCUQW7mkEeHp4WynXYoVP7c2EGmfgZ497emnv37oX/0mCjZ23bkHUf4C3AVfnrOagNaMXk/fsfvny0iqL2UFwZcYVtpt6/zzpBfS0tzftB5e3bHffnn/vuxYs13wZttVgBNQGWy7ZPVcbqgz59OvJlrsmeyt9W/Kzc7RD2Xf2d/pv+zry/23F//bXv+yI9E/09Vv5wvv5r4qVy04Ti69dj3y60khvK3+q1i1Z7+8cAF705a89Vfb6C2//+96X/VZM+m0zqGTBGh3OyegYqQwWz37//8mWnMVj9v8rb+vZGSVewE2A9embuet5cChV+dXXBz6rfvNlyr19v+38Xd1Aa3LUtok5OHZQt5/a/hXb3DEaDkGZEmsFrO1Kzdw0yWq4vrrYwwNshdKMOTZ3cly/HvvytMwuNKy0827tWUGyA1/+vMt/fX3f/+c+OH+BjdR/gLcCNZ4Ua1HXu5Nu3E7e4OJ9tn1u5DmsDvWck1La0RaKJjCY1agfxCgwBlutblVLdVxlqkNEEQYFXXv/vPjeY93cu2/rSoBX6u1Xf1+kZxP0dKyj5CpbRJE//fHh45oOhsOJqdXu0+m9bf9qO1TPUJEPBlSZ5GhPyCWGHNwl7yl9lpzJSP/Tx45E/O2gLGPYMCLCmZwgpDCbh4GE46D4/P1fobKyz0+pVfCC3+P+PvnJmqyhqoPr74oblskPATN97hfJvFV4KGDWY7n3u+UHfVl/5O9cf3MH5clJ55eU/ONPBsKDN2PZvWE2Z69veovzvLv/4pYwBNX7Is8gngnafkK1m9fZ38cCGfFJgZRXGgCR7KUkr6EN6ob52YCteakv6O3v7oEaD8u+l8ipjDL73cyjqSc3a02w/dxA7mzDKitV9wV28bchy/Gis/PM3R0Yb2PsH+bTwrJmtj17+xTaQPqjuF9taSvk/uPwf399R/g/pg9JHv7UWXzZNH/Sw8ncTui+MAKsUyZ2zu/sGh3EH9cGNq9xXS2sSAk+kQfEMxglOJ/NcMXr555OLaXyWlP9Dgy2MP4ZOAgFWJQcRTGPABp4BABBgAQAAEGABwDC8zAGAAAt49sGYu5GesfQp+6kof0ufg1l6rjzQcctsUm2AAAu1pHuZ7HqAchKuYqyOp9HIbsy3+8QeFywn2XUNGK387XqAhAhrBoKEJMssEW4rx/1tIBlwRQwBFh5pkm9NTOvP20vXWVgaoWG3tlP+kyr/dt9r0nHANNqss5hAXa+pD7qmhJdNBpd/SLA97O3jdKL1fxafy+R/trSvHbiea4G4qmc0+VUlaaEsyxwLuGi0JgOcbs1WegB9Ke9SCC7uT2w8Kz9/b6ocpcdRLjzd5Kt0ObqZOk5RUfbArM+0fGP6PA1w+UWNs71daaly7FLLkCrnwv3770+fJifPgeeySy+HlYfVWXtOqttKN/Ljx6nP7aZ/1iWCpMop6k2Vo1yoagfn5zd9KVrK7hP094d8b6ENWAov52ajD4rvErO6rgs/7ULXMldW7fmE+0OTLJennqUyU4T0aQv+z+i/qawZAwelyjnxGT3Ud6iMwniYlNofE2DVonKl3ZyHp/5LefhCYtFOtLSczPRMP9xo38g6HaUpUi4wBVlKPKyysBvAyw54VK4qb+W7UvmHQe26kFh39ss/T3arstbPr2TbGuTVwfWWxbAA1/5cuP06T1z8/v2B/3s0yOiWfs32bZUGYYBR+VuZaYBRWSnYDfnqJrdlogHs50/lPPzlc6/mg9r9ydWrIFz0HOqwgqu1tUW3vb3q09cojVnZW9dxf2FlGxIXN3z/rsAu5NZjRSsus5DVIfGTMJWTUtUpXZHag00Ey2wDBFg1oEamGasGtP/3/374hqhO1Qa10PHOfoBlqyPqDLWKpNUTNS6VjeXAiwf4MgNczTCV9+2ff364T58OfeNWx2hpdqo+wIzWwTX8rFurhVrN+PXrwpe/gt08wGrce1A3/nMhce6N+/Hjl3+GCl6XluYKufW4eDEfYKydq+4pyFF5qR2Euuiycr0rD+djAqzj4zP34cOhD4TVFsKgFhLWV/3snG03heTjc+7Fi5CXVH2rcg1qRbWsyZqtNCpfnn5vwUKjceif6erqog/yrK9jgtE/BuhZaeVWdTIEWNd+Qmbn2Eqb1FDsdQiwwgqWBiEN8P/7v//6SqWGaTnEZnmAH7QValsWCrT0q61gTeo8VljB0gBz4P7nf765f/898Z+tz7Ktmzp0cHHQf33d7j6Dm2wbb7QtwsQnOrfg1crWJhF2eNtFWzdsERafQUirFbatVQ9tGykv/3ILLF5l+fvvbz7Brk1sFIT05i+sWv9iW9EqP23PvXlz4X+m7e0Vn4S8/EAhz3ursrWjDlolt6MQjswSd44BIbWTbVuHMSCsptokpJxyI8CqSeUK51Su/FaKtmW0PaABTpUpnBFIan8YeFJnodRY1QlqQFEgoPLX1owCA33m/HzTDzKU/+hJt+MVrjC4hfLF9NV/m9Covmu1TNvyOiunlUsFWApEqhxgiQZoC7C0Paiky7/9tulXVyeRGzB+VipDO9uGMoLXxK+yE2Bh1CHeN0IN8uoItF2lFS39XitY6hjCCsrsjvBx8BIfkg7XNTQmftBcQZaCgDBjuvbPQJ2vZqK3t63u2QBXi/K3Z2Bnbx577sG2QULy7rQveTGrV3eVf1J4BpM8aG4rBvayh/VBIcBq+DNzVX1ONoG9uel0z/k0u6si7exlosl+fjqgDQyalNAGeseASbcBAqx6xOV9jSxUpHw7puwzF9M3Mxnt3z3VZ8crMdbYZ3k5v7cM4o5sEpcjMqDcVx7JVLS/uA2E76lqbUDfe9rXl8Y/39PXRfueMGqfMKnnRIBVm8oVInXNrmxJ3t7gsTNAddqiyjvB5Ak6wSQrf5WzPQM7FKvZez22CNOeMimn/O1MSnhDjnuvxmkDeflPOgrIL4IN9b/l20C+Rdiq5CQvfM/5dRN2RYO9sfkU109Y/bcVGer/OPU/vvJFX+Vu5xJg1agiFTu4egdY8YD/FD/3oPKP3+LUv+sPQma89NMy63fcSWKcNvBU9b84yQh1Xn1QaA+Nyq5g9d6BpZ9HX/Z28FMGWdwd/rj6X3ZbIMCqW3VK0wFfru/cCiYfXPS+3cYbP2UEbJRhFSY1vQNaaAtpBVew0r42Hdpx+uR1kfo/fQiwajOY52kUwmH3dvctwrAkGlaw6tM4462Rp5plDhpkiKnKmjS46IA7hTr6qkdS+u3VjwsQqhjUP+/Pkk+QU+59G3sMSApXw3DIHQ9uhJarKgRa4dX28AZFuyYrWPYDJtFbbHmj4mB0let2p1u/02gFwbFlOLANxC9WJN17w56yrNgGL7s8bQJdfIs2pf4PHQOSbmLsci8XJcCqaaWKbyoPwUWj8PunOo/xjHOWgbP36Wr4ePhs1PkLSMOMnoFlWBuw8qpDBoG6yC8XtTeSebZ31/8472ASvWBRbj9MgFWTSqVZqi6/W16e9xfh2Q3m4a2XVi22CIvnnYr3x8QreKxkVWd1IARV6iCb0V02T72CUL3671y+pZq3Aep/1eq/Bct6ScAmjL1BM23g7jGg2P+npb+FTIBVk9m9cmFtbCy7ly83/Y2/6+vLfovQkpPel2B3FhpWPlMJSYB10acSPevCQ0t+HZcZpnVgSQuDizIRLC3N+5xv+tXqMy9v9K5w2LZg2FLVJEv1/+zs2l9+G5IvW+CaEGhNcWAVXw2hNxZV75eXF/wEWhPpPFdnWtqt5LM0BtjF27rwVhkg9KvOJJd9jpMAqxYda+JWVubd3t6av3FYA9HZ2WWW2iHO3TbLjcu2RHVWQQ1KaWuUE1BfKpfb2zCbCWXC6DLNA0wIhkPdXVycc7u7az7n2+7uqq/fTZ+sMCXZbSSs9IWjAFq9Vm5Aq/8hy0A7uzok5HqkDUxpC+jW6ZAoWzsQmjyr/r94seY2Npb8pEPPz84mIk92rnJpt9s+dZzy86r+61cFXHYbflkIsGpSsTS72d/f8IPR/v66n73aPn1+Fmk2G6J+TLufRr9qMFFyVCWc1c+tWbzlRdMXM/dpf57hMLtekdfWoGbvCqzevXvh/vOfHZ9gVwOMrVSGoKHeAandt6YBWXVcEwzlxFQ5qS9Qe3DdbUOVa6PRjBIKY5omihr/FQSEfi0ki1eA9ebNtnv3btf382oTNplUG1BbqHsbsPvX1BYsMfb79we+zivY0pe9KFPW2UQCrNoEWGHrZH19yQcYtnXytG8PPd+Mz2Z6KgvN3rV6pYam5LNfvx5nGdTVcWmW33tHFaYrwLJA2La/t7ZW3OvXW+6vv/aziYQl2VZ9r/tqjMoq3DDe9HVcEwoNwtoe1wzeLh7Wf+Pg+/T3Z9YGnAvPdH190b18ueHevdvzkwyds7XJpG391p2CK9Vz9RmaYHz79tMHoAcHp35bNfQtnWwMIMDCyBRg2HZK3akMVBZaFtbKXkjTkfQdcJz1/IxVno3Gb0mp41SwoFm8tgo3N5ezP7u0RHkNsrS04GfsGogVoNpr6sXLMhu83Tp9oXL0jMJz0tavAgQ9y52dFb9DkaO/v2sMUHC1sfHTLz6ElS1XKNtSFjcoatRRuDOmU7jRHtWbybvCG6FhOxD3s7LictbZmHCEbcM0u+sQo48B9gbtJJoAARZq2imFt2uKAwuDTFUDreLKC+4PsFImFzPXBorXbeD+wHTSyeEJsADMzCADgHbwkGCLAAsAAKACCLAAAAAIsHA3Xq8GAGCskXNCQycB1gxUjDhhJXc3AUA9J9c2FuD5gysCrEpLs4YVUls0/IVzutMJAFCfACFkqmhkt/XjfuHi3UY3b+Nkcm8yGle0QdlMJaQDaft0Lycn5/5WWt1qrcqjez6UYy+kFZnhULPnDZCQcyrvbLiZGiG9TidLndObn63q7aP3gty4/jPgzuLEOh8HVJeVnUJJi5WZ4ujorHuTeyPLMUmqnBBQ6UsuL298OSmjwdXVTeHusDJ3ggiwKtiJqlGF/IHhPhsFVwqsPnw49H9GjctyjqmBzW5+vSQbPG3AVLkov5oS/qoc9LW4OM/Wac1pkDk9vfQdqn4NnWpeZ/JtlbSCbSC//0g/hlaydTv16mqo/yH5NUHW7Eywk25qr/DP6uNVp5Xy6J9/DnyePT1//TlyEeZjp+3yqBxURhozv3w5dsfH574/sJy1NrYSYNWzeXVXZBpZA9Kg8eXLT19BlGNvaSmkvgi3Nacz3riS7OcMOQebbnV1wWeWf/Vq0zcqpQLhXEK9qQNV21CHqhxkP39e+NXdEGA1fLqRqtZ/W50L7Tzx7X97e9XXf+c2ff0nwJqdQMG2BNM0BALKNaggQcnrb246vn4rdY7+m/pFSwxd9wBLZWbtQEGnBaVKmaYVLbUf9QVhy5AAq6azF5vBuCzAUk4xJSxWhfn06aib0NJSKKQzfPFc0u1EOt0E1mEZWIOLlstDlvmlbm46Aqx6B1i37ujo1L1//8P93/999x2rOlXXzWWowLzbFVcywFL912CqQFGrVq9fb/v/qlWsra1luvqZm2Q3shv4FWBpa1D9oAIty7Xquqv73NRvY2f+Mpjaim2ratwMAVa+glUWWl0F2ezFdfMpnZ9f+xm6GleZ0XdVhLNm4ZyBZm57exvdX9f9wEr/AtWPk5NL9+2btlF++ImIttZddti1WeHZeep/Ps3KFSwq6bXqvM5ivn59lW2FYnYm2Ta51K9hi/DKXVyEVVrOnI7ebtQ2LCehJlcWYJUVlBJgVbqRhVUqNbCbmzTLr1enVAmakcQHObUdoi91OL2HF1Ff6kBtxnpycuEPuCrA6j38WtWBQvXfAiz9TDo2cHl5nU08MJtBluvmlWy3275+W45JjDZ22IpWfA4zvDxWzmcQYFU/Ds8OeeeZwdNozz2Z8UYS9tPDFmHql8b1z3GW9Ir8JOQQm2gQ4rptJGynhUlJmLVW/e4g2yJUvdfPE7YLOyT+rd1qTCer45YAvQ5jwHhjZXEF0M5fakfIjt2UiQBrJqJw5ytHOPher07Vzppp5q6OJZynSbIZCWfb4aK7guyga3ijKJxTsfuD3ASTvk7y57J6L/azTXf9T2pV756iPC1YUP/faBBYj9MnTLKdEGDNgLDnnnSDrDq1LOtYOtlAo4tW9aUzNRpopnOQSZ64A4a92q46oe1AXeVhKz6hzjS7g1JauZ8rv6Kk43+++fmw5ZkHWtWaLFVxgvfc30O+Cktk9ZAxJO+Xyz1SQoA1Q9F4aGBJ38A9i7OZ+OfTilW7HWZvvatX0zq4xN9bHgTWKdpKn7xuWpBlr2LnE5P4zaGkMu0lrz9h5cru+rGbqfNzJckUfc9J4fuOv4qDXZX6orTn53n6cu/t/+swBjy0vfSXRb7iV3Y5EWDNwlCV5q/j1u2Aox1ytwtV7QzWtJ1BsWcUDqR2uufGOt2BsN39M/V7dk85sOZl386+nCvO/qu3gpJE58qKZ7DyNpBOTf2378vaQLgEOZ8QVXUFy34eBbV5/9PJzsM+Rd2258wh93ECriQKTsufkBNgzUhwZYe6bbsgNLLZP4Nkh9ztDZrQwbULg8vz9zdp9ozC4Wr7us0adm/qllmtq3ao3Ln8TFTD721Ptq5a+VuApfLXm3dxG6puuYY7fULA0uhe2dDOBvgp+S6zANfqv77nWZgU6ttXW9bPpPqs38d90KS37fKXnNKePq8eY8D4fVC+2mgr2eGAuyt91ZEAq/pVJmtQ+SqWe5YtmOcKsIodS/H30/Dzx8vP8UqWpTCapu/1aeprPvPX2zt5poFkos/AvnSVSTwQVbn8e+t//vv8552mgS1/BsW2mreFaq5g3VWfnvIZxLsYdRoDxu1/Qpnk913l/VD5n0aAVf0Qw0ffobI0CoNYLX76RAeXw8xRnVy4B6sVHfKdpu8zHLDW97e42MpWc/KLLuvx3OJgqnjAdLKfabnIrPzDHWn5IfcqbxHa1pTeJlQb0EH3aUp0bmfC5ubCIXw9g+vrOT/A6ZmE7BNJ5Vaz7HsO5R/KW+UfXrR5qpcMbAxoRvWXNwnve26D+qOy6x8BVhVj8KgSqAG3Wq3szSg16iRpZCsjszyDsTaS3+TufMf94sWav81aCU8tuedzf596LktL8z5tz+7umh8Udcu8/psFg3V4VnaJn93dZFtFdnfZoA6wDCpfpRBR6qSdnVX/mRcX19lFo1W8piE/tBtuclc70M+puq9b3JUmR33CNARZFnisrYXyV/aJlZXFboDVKLTTqr1kYJc92xks5ULVz6ifVXWuMYFZXj4GJP7FHo0B4e3RViGwrs/K+GjPy/oVu8U9XFIdtnctZ2OZ29YEWJUMsFyW2FWNd2VlwXeqGrxDp5rPBm27YJb34e2Qrw2WKofff9/2OQnVwU1B0/aDy/b2invzZst/vwoCdQbIgq9GY/aT8dpbbRYQKAeY0jvpSzfvxwmLy66vCjRUL377bdN/tvLzWRqlcHdao8L9QZoFqNYfKNGzUkVpsJ+Gn03tcn19yb18ueHzvqmfsgA3vpOsqiwXpOqtJlL7++v+Z1VeSK3alf2886s5nA+u1tcX3ebmip9ALC8vZAErN7vnY2b8trD6GtVDZXVQ/6Pk76qPZV9QTYBVwYpit7Zbx6TOSh2qBm91qmpgtr+sjjc/4zJzc5IswLLZh8pkZWXeB1cKYtTZPfcM3jpdrVzpWayvL/s0LeEtQhddGeBm8h6bEOAn2cxaz0ud2ffvJ+7jxyP/z+rsrq7CIegQiDVKXcWyALfd3vUBiAI6e4swP2jvKvYMksKAa1uFWsXVhEv1X6so0xJg2cRncXHevX691T3k7rr3k8VXDFSr/PX9Kriyc2QK5hVMqr3rZ9aq0iTGgNCvN7tJ7Zfdmzfbvly1eqY6ELaPO/57m90xYPQys0t4XZQg+8uXn+7jxwNfF5Vayl7EKKvvIcCqUjiRFN8YDPc+hQBLs6U//9x3b9/u+MatGYz+XFj6nOXGlRSWdNUw9LMvLc35oEZfz50GRZ+v72d3d9VvW+7vbxRyxM36JYE2iNrlr+rANHN8//7AB5maQR4cnBZm5s1muZc4asBRgKUVTQ18etPLPqva5Z9fL2H1SWWsgFJ1TfV/GhJZK8hQEKDVdU1+tHpoW8KzkHEhLn8F66pvKns9gzLzXFo5xStTFmApuPrvf1+6337b8pMIe6Paru+o+8JEvBV9eXnrfvz45YPhi4srnyTbzjOGiQorWLVfxdIgpEakwVszpVevNtzbt7v+98ZWd2b/Esu0MOj0JvB8bmrI6ggVDPffGD77z6a4Sud8gKXO/99/T3z9DSuuLrsXqexdjXDOatEPPP0J0ZOZawP53VLTEbxocNPKsgKO/jMus1z+5Z8nLN55GF4SUL3WypWCrD/+2PXBnbGt93rnJEwLEw2Vifod9UOfPh35CUDxjW5WsAi0uo0mvJ3T9LNWVZpY2P5oUljTsNaQ2FYItJIUXspoZjePDw6Wyy3/cG6R8n+u+k/y4UeXYmGibedrbYXYVs5iVT5fOCm2yjvobfMyJ3eU/AxE5r03hAPTLr9pvFPLDARAeRPt4kW64foRjNIHFe8vK/8zCLBmonE5BilUrt4CmEywhfHH0EkgwAIAACDAAgAAIMACaoCDuwAAAqzZGdaTPAVAQtr0sQIiiut56y1B7vOXv/UfeL7yL//v5YE+ZAwlwMIdg0p+7xOv5I5G1yXYPVkPTThsnZklstV1A5T/iB1Po5HdjRUmBsmj2kD8DDB6+TMxe95nYPX2sY+g2AfxPEcr/2TidyXSG80IrmkYj8rJUkiMmqvx7rdN0uxCV16RHk273Y7yfvVmGrj/YfRe4Bi/po5R6n97hLxrvI026f46vpF9tJWUdMAkz3FVz4P6oHwMcBNaVeSi0QqKbylXJ2lJK3UrtvIQ6iZ33ZysCjT7qXJGC4xC3samLzeVydHRmc+Fd3Jy2U3b4fpufx808NjAHicu1v//69eF+/79l1tfP/J59nQzsCU1Drmt6l3+dhmuZtiWKufbtxOfZFX118rIZvPDyivfEg//rLQ3ShytdDufPx/74EGXCIZcnO0s52Ody1/lZZcqqj84O7t0X7/+9GmKVF8tMM1XdcstMP39Id/bjW8v1i8pYCh+3uwGdep/9KV6qTL/8uXY90NnZ9dZUJTf/j6s/scX5ia+bC8ubvzfpWeqz1CSb/0ZGwPIRRinykl8PdR4eXDwy/cdoYxc6dkPCLAqVkmsE7SGpgj87OzKD1YaVM7Pr33ahNCRdrJkz3VPkxC2T5tZfi41KiX6VJClxMsqq7hc7+vg8gDXEhf/cv/888MPImtri91ckGl2mWbdyz/kiGxkAZbq6bdvP/2XnoUlWI0z3t+1stIb4KqzPDw89bkN9fd8/bqc5X9T/af80yzZtgVYSmyrOvv581GWtigu17KF5LoXPgjWs1Kybf07+97Cdtls34+mrTs7QqAgU+Xw8eOhOz4+8/1Gb4A7rCwstZSV7cnJuZ9cqN9R0KxMCXmyZ8YA1bPeZM8qJ6XJUR5C9SE2ESyzDRBgVW71KikMRGo8Wj3RbOjq6sYPWJZJ3ZaNuXfOVqdCJ64yUVmpw1cnpwDVcuDFA/ywzk276+Hv6vgZqGZDGqSUQFSdW55br0P596y6ql5eX7f9wK7y//UrDrAa9x7U7R2QNXv//v3UP0PN4pUqRB2p5Tbk4sW83lq91ACjwFaDiwYa/XPcRsoOdmxA+/Dh0H34cOCDuzCoFQe+OpS/627Rqt9QfdUzUMDlXLH8716NtAArTAStbBuNQ9+X2QTP+jpLak4flJ93s0meyk19kOqiTcTLPMdJgFXRhmoNTRVFjUoz9Z8/z/3WVDjkmHTT6DiWh9PePGhpd8ui7QOtsEXYKZTraMFCKFutgFmgq/x6eW49yv+u8lenr1m7yl7PwLbxRtsiTHyic9c9e2IrWLaSq8Ga8u8flOM3Z1X+Gpit/MNqUlz+5RZYWGXRRPDI/f33N79yYxObsHXWmNltQgtU45VxC3JDG7jpWcEaZYJhf2+SrQ7aqpgdhcg/e/RzpvXog8I/q8+5vr7ptoFb30/kk5By6iABVmVXsfIBxiqIKxx6pJyGBUiDymjUvfdBHWVYEaD8n6b8iwNQOGfV9gN2/P/zDIaXf28ZlXn2pFc4JxRWDLTaq60ZrVyq/1JAoC3dWd8ivK/8XXT8Y5w+KJzDDWdxqf+PK39b5eqU9J4AAVblI/M0WwbOl4PTaNZEGfXPJPOt1nBdQ+PBg0ucaNXK395MpPzvLn8FSDZbfOy5h7zud/rKn2dwVzDlsu2Qp3hdXc/EDlwrEFCwpS0aPS8FV/PzzdqVvw3mWnF9TPkXx4D+N0Op/8PLf5JtgADriSLlCX6KS5K08Jl1Xw4e9XmUUUZ3zbop/+Fl0v/7pIJtj/7osZ/dfz1HWqvyn1RQS/0fr0wmddkoAdaEgp6nrTS2EpNme+4YJTAd7bXoUZ5BWAVLu69OU/5PW/7hTEqSNPzZLA61P6T8k4l/nq3W6LyVrVrZClZ463P2r2roL3/36It28/qfRG8X0gZGKTfn3ESvCSHAenQ0XDy8O6kUCPdVlHgVgNnL/cocgyn/5y7/4iBF+T/9Mxj1GYWbxpuFO6HsDNasr2A9VR9E/X9o+SeltwkCrEc/HHsNPM1u+rYzIM81kWYCX5+BC5R/xZ7Onc9MK8A8O+r/LBk7wBoUHecHS/PXouvAlhXDW2S33d83/RtNdsEk2xUAcH8wQFeJ2gdYgxpInAcpf4OnHjfHKsaydBz2yn7Ic9fpe5sJAECnCAKsgcHEXf8+v102vwCtDvLXncPPGw6bJ48+uAgAAGoSYLlsxcoVMlDr0OIk81hNO61g2U3IStOxurrolpbm/Fsyo14cBwAAahxg2aFu+9IbIMq9pgTDCi6UBy+kqnBZLrBZZbGktgQVZInKYm9v3b14se4DLUs6CwAACLDuDq9SF91Y7XwAsbGx5AOKvb01t7Gx7POxhUzeaTeT/Wyz82cSymPZvXq16ba3V33ABQAACLCGSLoBhQ5x+3DLr2Ctry+7N2+23Lt3L9zLl5tueXneb40p6AiHv9OZ3jq0tyhdNxu6tgfX15d8oKUVPQAAQIA1lL0xaHeW6FbetbUFt7e34f7444X7449dt7a25A97K7jS2aT4vNYsiu+8CmfS7LbiFluEAAAQYI0TUIQASys2Cwtzbm1t0e3srLr9/Q0OdgMAgFprPP6vyA+8x2eRAAAACLDGEG/1FdPDpNxcDgA18PAjH+xwgABrpEZEYslp7MAAgP4OeM46OMIZrGKWbnsbMM/ejcfN4pLCg7Vb8fMyZ0UQwPT0WTYOPOzlpeK4Efd79Hd4zrpdjHMGB1zjxjz3Blj51l8nu9cqXB7aie7DSgtv0mEUaWFrNS7Ldjt1zWZKzi4AU9VnaQCycaB4J+Jox0Pivs7+P/s9/R2ev253/PjbOyZb1R43xmmN0hjCdQv6unXX1213fX3r3x7Ur73JjTHi4+x2TnaVhcpSX5xjAzC18/wkJLS363d0HY2NAfF9gHf1dxon7P/XeJIHV8Dz1+0wHt92r6JyUd1+WHzTui8IyCO5ENm12+1uMOX8r/qyD48jPdwfYPW+fWlBasjryNuYAKaPXSCtWb/1/70z/UGT9eJYUryEuu1vrubMCZ43wLJ6qXraavXW7/H/ztZ9H6jKr4sz7fJM3dwetrDC7/Wl32tFK+FQ1lgPU/eF6UvlpwtJ9aUHqV9V1vE5BwB4/n4rySaIlskjHwOSLAftoLMrYSxJsv+n2N816e/w7HXb6mAIsBo98U3JAZb+UuUVXFmZ92lftrZW/IfZFqESPG9tLftLRpVzLwQFPKhRqDPSTe8qQ+VyVNnqny2BNjfAA5jGiWHYNmn7QGppKYwNq6sLbn5+zo8Lg/8/jSVNt7y84NOIbW+v+H+2gUx9H/Dcddu2sFUvFftsbqpuh/im2Rx/TB5aq0ManEW3t7fu3r698jn2Tk+v/DegAEEfqm/g9estHyDon1nFGrHgW81uiiGV7a6/Df/i4toHWLY6CADTNgjFZ27Vb+3urrqXLzf8RFGD0qAhYG6u4Qeq0N/t+Byt5+f0d5i2ACvtTh7CyqrimhDfLD8ovhkaYFkE9/vvO36G8erVhru6uvXfQL4CM+92d9fc/v66n52QJmc0enibmyvuzZtt/3t1UOGQu/PL6HfNBAHgOcVvEarvskm4UqUtLrbu6O/CWPLmzZb/f5RSzfo7OyYBPHeAZeehwzjc8Cuzim9evFB8Mz92fHNvgKUITrMLNY6rq5vsAJglNVZjUWClRqbtLgKs0VjwqjJUdHx5eZM92HCWgXIEMH3iF5rUf4VjJAvZUZG7JpTaStSf18Ty8vKa/g5TWrfDr/Eikuq2Aqxxq2mSDjlVGF6t7URvC6bZ4UYXXTaq1RY7CE+ANeqDvKtsudEYQDX6sPjwuo0Bg4Il+jtUs24/Lr4ZGmABAABgfGx8AwAAEGABAAAQYAEAABBgAQAAgAALAACAAAsAAIAACwAAAARYAAAABFgAAAAEWAAAACDAAgAAIMACAAAgwAIAACDAAgAAAAEWAAAAARYAAAABFgAAAAiwAAAACLAAAAAIsAAAAECABQAAQIAFAABAgAUAAAACLAAAAAAAAAAAAAAAAAAAAAAAAAAAAAAAAAAAAAAAAAAAAAAAAAAAAAAAAAAAAAAAAAAAAAAAAAAAAAAAAAAAAAAAAAAAAAAAAAAAAAAAAAAAAAAAAAAAAAAAAAAAAAAAAAAAAAAAAAAAAAAAAAAAAAAAAAAAAAAAAAAAAAAAAAAAAAAAAAAAAAAAAAAAAAAAAAAAAAAAAAAAAAAAAAAAAAAAAAAAAAAAAAAAAAAAAAAAAAAAAAAAAAAAAAAAAAAAAAAAAAAAAAAAAAAAAAAAAAAAAAAAAAAAAAAAAAAAAAAAAAB19P8BFlT/K8QOaigAAAAASUVORK5CYII=;" vertex="1" parent="1">
          <mxGeometry x="-2162.5" y="3315.14" width="60" height="31.5" as="geometry" />
        </mxCell>
        <mxCell id="WS7tdzHbWe4_qbeAku0G-72" style="edgeStyle=orthogonalEdgeStyle;rounded=0;orthogonalLoop=1;jettySize=auto;html=1;entryX=0;entryY=0.5;entryDx=0;entryDy=0;fontSize=12;" edge="1" parent="1" source="WS7tdzHbWe4_qbeAku0G-73">
          <mxGeometry relative="1" as="geometry">
            <mxPoint x="-1844.5" y="3325" as="targetPoint" />
          </mxGeometry>
        </mxCell>
        <mxCell id="WS7tdzHbWe4_qbeAku0G-73" value="Managed Gateway" style="rounded=1;whiteSpace=wrap;html=1;verticalAlign=top;fontSize=12;" vertex="1" parent="1">
          <mxGeometry x="-2025.5" y="3290" width="140" height="70" as="geometry" />
        </mxCell>
        <mxCell id="WS7tdzHbWe4_qbeAku0G-74" value="" style="sketch=0;pointerEvents=1;shadow=0;dashed=0;html=1;strokeColor=none;fillColor=#505050;labelPosition=center;verticalLabelPosition=bottom;verticalAlign=top;outlineConnect=0;align=center;shape=mxgraph.office.services.network_file_share_service;fontSize=12;aspect=fixed;" vertex="1" parent="1">
          <mxGeometry x="-1970.5" y="3316.4300000000003" width="30" height="28.91" as="geometry" />
        </mxCell>
        <mxCell id="WS7tdzHbWe4_qbeAku0G-75" value="Payment File" style="shape=image;html=1;verticalAlign=top;verticalLabelPosition=bottom;labelBackgroundColor=#ffffff;imageAspect=0;aspect=fixed;image=https://cdn4.iconfinder.com/data/icons/48-bubbles/48/12.File-128.png;fontSize=12;" vertex="1" parent="1">
          <mxGeometry x="-2272.5" y="3290" width="30" height="30" as="geometry" />
        </mxCell>
        <mxCell id="WS7tdzHbWe4_qbeAku0G-76" value="Batch Processor" style="rounded=1;whiteSpace=wrap;html=1;verticalAlign=top;fontSize=12;" vertex="1" parent="1">
          <mxGeometry x="-1660.75" y="3290" width="140" height="70" as="geometry" />
        </mxCell>
        <mxCell id="WS7tdzHbWe4_qbeAku0G-77" value="" style="aspect=fixed;html=1;points=[];align=center;image;fontSize=12;image=img/lib/azure2/compute/Kubernetes_Services.svg;" vertex="1" parent="1">
          <mxGeometry x="-1605.75" y="3318.87" width="30" height="26.47" as="geometry" />
        </mxCell>
        <mxCell id="WS7tdzHbWe4_qbeAku0G-87" value="" style="edgeStyle=orthogonalEdgeStyle;rounded=0;orthogonalLoop=1;jettySize=auto;html=1;" edge="1" parent="1" source="WS7tdzHbWe4_qbeAku0G-79" target="WS7tdzHbWe4_qbeAku0G-86">
          <mxGeometry relative="1" as="geometry" />
        </mxCell>
        <mxCell id="WS7tdzHbWe4_qbeAku0G-79" value="FDMR" style="rounded=1;whiteSpace=wrap;html=1;verticalAlign=top;fontSize=12;" vertex="1" parent="1">
          <mxGeometry x="-2020.75" y="3500" width="140" height="70" as="geometry" />
        </mxCell>
        <mxCell id="WS7tdzHbWe4_qbeAku0G-80" style="edgeStyle=orthogonalEdgeStyle;rounded=0;orthogonalLoop=1;jettySize=auto;html=1;entryX=0;entryY=0.5;entryDx=0;entryDy=0;" edge="1" parent="1" source="WS7tdzHbWe4_qbeAku0G-81" target="WS7tdzHbWe4_qbeAku0G-76">
          <mxGeometry relative="1" as="geometry" />
        </mxCell>
        <mxCell id="WS7tdzHbWe4_qbeAku0G-81" value="Batch Validator" style="rounded=1;whiteSpace=wrap;html=1;verticalAlign=top;fontSize=12;" vertex="1" parent="1">
          <mxGeometry x="-1843.75" y="3290" width="140" height="70" as="geometry" />
        </mxCell>
        <mxCell id="WS7tdzHbWe4_qbeAku0G-82" value="" style="aspect=fixed;html=1;points=[];align=center;image;fontSize=12;image=img/lib/azure2/compute/Function_Apps.svg;" vertex="1" parent="1">
          <mxGeometry x="-1788.75" y="3317.17" width="30" height="26.47" as="geometry" />
        </mxCell>
        <mxCell id="WS7tdzHbWe4_qbeAku0G-83" value="" style="shape=image;verticalLabelPosition=bottom;labelBackgroundColor=default;verticalAlign=top;aspect=fixed;imageAspect=0;image=https://upload.wikimedia.org/wikipedia/commons/thumb/a/a3/.NET_Logo.svg/2048px-.NET_Logo.svg.png;" vertex="1" parent="1">
          <mxGeometry x="-1965.75" y="3530" width="30" height="30" as="geometry" />
        </mxCell>
        <mxCell id="WS7tdzHbWe4_qbeAku0G-89" style="edgeStyle=orthogonalEdgeStyle;rounded=0;orthogonalLoop=1;jettySize=auto;html=1;" edge="1" parent="1" source="WS7tdzHbWe4_qbeAku0G-84" target="WS7tdzHbWe4_qbeAku0G-86">
          <mxGeometry relative="1" as="geometry" />
        </mxCell>
        <mxCell id="WS7tdzHbWe4_qbeAku0G-90" style="edgeStyle=orthogonalEdgeStyle;rounded=0;orthogonalLoop=1;jettySize=auto;html=1;entryX=0;entryY=0.5;entryDx=0;entryDy=0;" edge="1" parent="1" source="WS7tdzHbWe4_qbeAku0G-84" target="WS7tdzHbWe4_qbeAku0G-76">
          <mxGeometry relative="1" as="geometry" />
        </mxCell>
        <mxCell id="WS7tdzHbWe4_qbeAku0G-84" value="FDMR polling" style="rounded=1;whiteSpace=wrap;html=1;verticalAlign=top;fontSize=12;" vertex="1" parent="1">
          <mxGeometry x="-1843.75" y="3400" width="140" height="70" as="geometry" />
        </mxCell>
        <mxCell id="WS7tdzHbWe4_qbeAku0G-85" value="" style="aspect=fixed;html=1;points=[];align=center;image;fontSize=12;image=img/lib/azure2/compute/Function_Apps.svg;" vertex="1" parent="1">
          <mxGeometry x="-1788.75" y="3427.17" width="30" height="26.47" as="geometry" />
        </mxCell>
        <mxCell id="WS7tdzHbWe4_qbeAku0G-86" value="Payment File Directory" style="rounded=1;whiteSpace=wrap;html=1;verticalAlign=top;fontSize=12;" vertex="1" parent="1">
          <mxGeometry x="-1843.75" y="3500" width="140" height="70" as="geometry" />
        </mxCell>
        <mxCell id="WS7tdzHbWe4_qbeAku0G-88" value="" style="aspect=fixed;html=1;points=[];align=center;image;fontSize=12;image=img/lib/azure2/general/Folder_Blank.svg;" vertex="1" parent="1">
          <mxGeometry x="-1788.75" y="3530" width="30" height="24.35" as="geometry" />
        </mxCell>
      </root>
    </mxGraphModel>
  </diagram>
</mxfile>
